<?xml version="1.0" encoding="UTF-8" standalone="no"?>
<!-- Created with Inkscape (http://www.inkscape.org/) -->

<svg
   xmlns:dc="http://purl.org/dc/elements/1.1/"
   xmlns:cc="http://creativecommons.org/ns#"
   xmlns:rdf="http://www.w3.org/1999/02/22-rdf-syntax-ns#"
   xmlns:svg="http://www.w3.org/2000/svg"
   xmlns="http://www.w3.org/2000/svg"
   xmlns:sodipodi="http://sodipodi.sourceforge.net/DTD/sodipodi-0.dtd"
   xmlns:inkscape="http://www.inkscape.org/namespaces/inkscape"
   version="1.1"
   id="svg2"
   xml:space="preserve"
   width="1242.7987"
   height="1440"
   viewBox="0 0 1242.7987 1440"
   sodipodi:docname="logo.ai.svg"
   inkscape:version="0.92.3 (2405546, 2018-03-11)"><metadata
     id="metadata8"><rdf:RDF><cc:Work
         rdf:about=""><dc:format>image/svg+xml</dc:format><dc:type
           rdf:resource="http://purl.org/dc/dcmitype/StillImage" /><dc:title></dc:title></cc:Work></rdf:RDF></metadata><defs
     id="defs6"><clipPath
       clipPathUnits="userSpaceOnUse"
       id="clipPath72"><path
         d="M 0,1080 H 932.099 V 0 H 0 Z"
         id="path70"
         inkscape:connector-curvature="0" /></clipPath></defs><sodipodi:namedview
     pagecolor="#ffffff"
     bordercolor="#666666"
     borderopacity="1"
     objecttolerance="10"
     gridtolerance="10"
     guidetolerance="10"
     inkscape:pageopacity="0"
     inkscape:pageshadow="2"
     inkscape:window-width="1533"
     inkscape:window-height="845"
     id="namedview4"
     showgrid="false"
     inkscape:zoom="0.16388889"
     inkscape:cx="621.39935"
     inkscape:cy="720"
     inkscape:window-x="67"
     inkscape:window-y="27"
     inkscape:window-maximized="1"
     inkscape:current-layer="g10" /><g
     id="g10"
     inkscape:groupmode="layer"
     inkscape:label="VOLETONLOGO(1)"
     transform="matrix(1.3333333,0,0,-1.3333333,0,1440)"><path
       d="m 340.212,318.622 h -61.271 v 27.846 h 61.271 z"
       style="fill:#040404;fill-opacity:1;fill-rule:nonzero;stroke:none"
       id="path12"
       inkscape:connector-curvature="0" /><path
       d="M 413.321,318.622 H 352.05 v 27.846 h 61.271 z"
       style="fill:#040404;fill-opacity:1;fill-rule:nonzero;stroke:none"
       id="path14"
       inkscape:connector-curvature="0" /><path
       d="m 487.908,318.622 h -61.271 v 27.846 h 61.271 z"
       style="fill:#040404;fill-opacity:1;fill-rule:nonzero;stroke:none"
       id="path16"
       inkscape:connector-curvature="0" /><path
       d="m 559.54,318.622 h -61.271 v 27.846 h 61.271 z"
       style="fill:#040404;fill-opacity:1;fill-rule:nonzero;stroke:none"
       id="path18"
       inkscape:connector-curvature="0" /><path
       d="m 634.127,318.622 h -61.271 v 27.846 h 61.271 z"
       style="fill:#040404;fill-opacity:1;fill-rule:nonzero;stroke:none"
       id="path20"
       inkscape:connector-curvature="0" /><path
       d="m 340.212,361.459 h -61.271 v 27.846 h 61.271 z"
       style="fill:#040404;fill-opacity:1;fill-rule:nonzero;stroke:none"
       id="path22"
       inkscape:connector-curvature="0" /><path
       d="M 413.321,361.459 H 352.05 v 27.846 h 61.271 z"
       style="fill:#040404;fill-opacity:1;fill-rule:nonzero;stroke:none"
       id="path24"
       inkscape:connector-curvature="0" /><path
       d="m 487.908,361.459 h -61.271 v 27.846 h 61.271 z"
       style="fill:#040404;fill-opacity:1;fill-rule:nonzero;stroke:none"
       id="path26"
       inkscape:connector-curvature="0" /><path
       d="m 559.54,361.459 h -61.271 v 27.846 h 61.271 z"
       style="fill:#040404;fill-opacity:1;fill-rule:nonzero;stroke:none"
       id="path28"
       inkscape:connector-curvature="0" /><path
       d="m 634.127,361.459 h -61.271 v 27.846 h 61.271 z"
       style="fill:#040404;fill-opacity:1;fill-rule:nonzero;stroke:none"
       id="path30"
       inkscape:connector-curvature="0" /><path
       d="m 340.212,401 h -61.271 v 27.846 h 61.271 z"
       style="fill:#040404;fill-opacity:1;fill-rule:nonzero;stroke:none"
       id="path32"
       inkscape:connector-curvature="0" /><path
       d="M 413.321,401 H 352.05 v 27.846 h 61.271 z"
       style="fill:#f0ff00;fill-opacity:1;fill-rule:nonzero;stroke:none"
       id="path34"
       inkscape:connector-curvature="0" /><path
       d="m 487.908,401 h -61.271 v 27.846 h 61.271 z"
       style="fill:#040404;fill-opacity:1;fill-rule:nonzero;stroke:none"
       id="path36"
       inkscape:connector-curvature="0" /><path
       d="m 559.54,401 h -61.271 v 27.846 h 61.271 z"
       style="fill:#f0ff00;fill-opacity:1;fill-rule:nonzero;stroke:none"
       id="path38"
       inkscape:connector-curvature="0" /><path
       d="m 634.127,401 h -61.271 v 27.846 h 61.271 z"
       style="fill:#040404;fill-opacity:1;fill-rule:nonzero;stroke:none"
       id="path40"
       inkscape:connector-curvature="0" /><path
       d="m 340.212,443.837 h -61.271 v 27.845 h 61.271 z"
       style="fill:#f0ff00;fill-opacity:1;fill-rule:nonzero;stroke:none"
       id="path42"
       inkscape:connector-curvature="0" /><path
       d="M 413.321,443.837 H 352.05 v 27.845 h 61.271 z"
       style="fill:#040404;fill-opacity:1;fill-rule:nonzero;stroke:none"
       id="path44"
       inkscape:connector-curvature="0" /><path
       d="M 413.321,486.673 H 352.05 v 27.846 h 61.271 z"
       style="fill:#f0ff00;fill-opacity:1;fill-rule:nonzero;stroke:none"
       id="path46"
       inkscape:connector-curvature="0" /><path
       d="M 413.321,529.509 H 352.05 v 27.846 h 61.271 z"
       style="fill:#f0ff00;fill-opacity:1;fill-rule:nonzero;stroke:none"
       id="path48"
       inkscape:connector-curvature="0" /><path
       d="M 413.321,572.346 H 352.05 v 27.845 h 61.271 z"
       style="fill:#f0ff00;fill-opacity:1;fill-rule:nonzero;stroke:none"
       id="path50"
       inkscape:connector-curvature="0" /><path
       d="m 487.908,443.837 h -61.271 v 27.845 h 61.271 z"
       style="fill:#f0ff00;fill-opacity:1;fill-rule:nonzero;stroke:none"
       id="path52"
       inkscape:connector-curvature="0" /><path
       d="m 559.54,443.837 h -61.271 v 27.845 h 61.271 z"
       style="fill:#040404;fill-opacity:1;fill-rule:nonzero;stroke:none"
       id="path54"
       inkscape:connector-curvature="0" /><path
       d="m 634.127,443.837 h -61.271 v 27.845 h 61.271 z"
       style="fill:#040404;fill-opacity:1;fill-rule:nonzero;stroke:none"
       id="path56"
       inkscape:connector-curvature="0" /><path
       d="m 340.212,486.673 h -61.271 v 27.846 h 61.271 z"
       style="fill:#040404;fill-opacity:1;fill-rule:nonzero;stroke:none"
       id="path58"
       inkscape:connector-curvature="0" /><path
       d="m 487.908,486.673 h -61.271 v 27.846 h 61.271 z"
       style="fill:#040404;fill-opacity:1;fill-rule:nonzero;stroke:none"
       id="path60"
       inkscape:connector-curvature="0" /><path
       d="m 487.908,529.509 h -61.271 v 27.846 h 61.271 z"
       style="fill:#f0ff00;fill-opacity:1;fill-rule:nonzero;stroke:none"
       id="path62"
       inkscape:connector-curvature="0" /><path
       d="m 634.127,486.673 h -61.271 v 27.846 h 61.271 z"
       style="fill:#040404;fill-opacity:1;fill-rule:nonzero;stroke:none"
       id="path64"
       inkscape:connector-curvature="0" /><g
       id="g66"><g
         id="g68"
         clip-path="url(#clipPath72)"><g
           id="g74"
           transform="translate(110.3739,413.3184)"><path
             d="m 0,0 103.907,-106.918 c 19.866,-20.442 52.026,-4.588 51.849,25.562 l -0.821,139.719 1.284,102.745 c 0.345,27.591 -28.722,42.655 -47.402,24.564 L 2.064,82.285 C -18.876,60.198 -19.8,23.358 0,0"
             style="fill:#f0ff00;fill-opacity:1;fill-rule:nonzero;stroke:none"
             id="path76"
             inkscape:connector-curvature="0" /></g><g
           id="g78"
           transform="translate(805.0795,490.7568)"><path
             d="m 0,0 -103.907,106.918 c -19.866,20.442 -52.027,4.588 -51.849,-25.561 l 0.82,-139.72 -1.284,-102.745 c -0.344,-27.591 28.723,-42.654 47.403,-24.564 L -2.064,-82.285 C 18.876,-60.198 19.8,-23.357 0,0"
             style="fill:#f0ff00;fill-opacity:1;fill-rule:nonzero;stroke:none"
             id="path80"
             inkscape:connector-curvature="0" /></g><g
           id="g82"
           transform="translate(457.7943,854.0815)"><path
             d="m 0,0 c 180.137,0 326.167,-171.206 326.167,-382.4 0,-11.532 -0.462,-22.937 -1.314,-34.21 11.644,37.565 17.961,77.818 17.961,119.684 0,205.791 -152.562,372.617 -340.756,372.617 -188.194,0 -340.755,-166.826 -340.755,-372.617 0,-35.245 4.479,-69.347 12.842,-101.664 -0.191,5.371 -0.312,10.764 -0.312,16.19 C -326.167,-171.206 -180.137,0 0,0"
             style="fill:#f0ff00;fill-opacity:1;fill-rule:nonzero;stroke:none"
             id="path84"
             inkscape:connector-curvature="0" /></g></g></g><text
       transform="matrix(1,0,0,-1,206.3276,137.9395)"
       style="font-variant:normal;font-weight:normal;font-stretch:normal;font-size:155.95649719px;font-family:Copasetic;-inkscape-font-specification:Copasetic;writing-mode:lr-tb;fill:#f0ff00;fill-opacity:1;fill-rule:nonzero;stroke:none;"
       id="text88"><tspan
         x="0 78.602074 200.24814 236.43005 282.43723 371.17648 420.77063 438.39371"
         y="0"
         sodipodi:role="line"
         id="tspan86">VOLTASIC</tspan></text>
</g></svg>